<?xml version="1.0" encoding="utf-8"?>
<!-- Generator: Adobe Illustrator 16.0.0, SVG Export Plug-In . SVG Version: 6.00 Build 0)  -->
<!DOCTYPE svg PUBLIC "-//W3C//DTD SVG 1.1//EN" "http://www.w3.org/Graphics/SVG/1.1/DTD/svg11.dtd">
<svg version="1.1" id="Layer_1" xmlns="http://www.w3.org/2000/svg" xmlns:xlink="http://www.w3.org/1999/xlink" x="0px" y="0px"
	 width="640px" height="480px" viewBox="0 0 640 480" enable-background="new 0 0 640 480" xml:space="preserve">
<rect fill="#3C1143" width="640" height="480"/>
<text transform="matrix(1 0 0 1 147.5205 331.5)"><tspan x="0" y="0" fill="#FFFFFF" font-family="'Raleway-Regular'" font-size="50">PURE</tspan><tspan x="131.949" y="0" fill="#FFFFFF" font-family="'Raleway-Regular'" font-size="50" letter-spacing="-1"> </tspan><tspan x="143.048" y="0" fill="#FFFFFF" font-family="'Raleway-Regular'" font-size="50" letter-spacing="-1">V</tspan><tspan x="175.748" y="0" fill="#FFFFFF" font-family="'Raleway-Regular'" font-size="50">O</tspan><tspan x="213.297" y="0" fill="#FFFFFF" font-family="'Raleway-Regular'" font-size="50" letter-spacing="-2">L</tspan><tspan x="240.247" y="0" fill="#FFFFFF" font-family="'Raleway-Regular'" font-size="50">UME</tspan></text>
<g>
	<defs>
		<rect id="SVGID_1_" width="640" height="480"/>
	</defs>
	<clipPath id="SVGID_2_">
		<use xlink:href="#SVGID_1_"  overflow="visible"/>
	</clipPath>
	<path clip-path="url(#SVGID_2_)" fill="#FFFFFF" d="M100.5,291.039L100.5,291.039c-1.925,0-3.5-1.575-3.5-3.5V121.5
		c0-1.925,1.575-3.5,3.5-3.5s3.5,1.575,3.5,3.5v166.039C104,289.464,102.425,291.039,100.5,291.039"/>
	<path clip-path="url(#SVGID_2_)" fill="#FFFFFF" d="M122.167,247.28L122.167,247.28c-1.925,0-3.5-1.575-3.5-3.5v-72.822
		c0-1.925,1.575-3.5,3.5-3.5c1.925,0,3.5,1.575,3.5,3.5v72.822C125.667,245.705,124.092,247.28,122.167,247.28"/>
	<path clip-path="url(#SVGID_2_)" fill="#FFFFFF" d="M144.021,255.327L144.021,255.327c-1.925,0-3.5-1.575-3.5-3.5v-91.34
		c0-1.925,1.575-3.5,3.5-3.5c1.925,0,3.5,1.575,3.5,3.5v91.34C147.521,253.752,145.946,255.327,144.021,255.327"/>
	<path clip-path="url(#SVGID_2_)" fill="#FFFFFF" d="M165.875,245.103L165.875,245.103c-1.925,0-3.5-1.575-3.5-3.5v-70.646
		c0-1.925,1.575-3.5,3.5-3.5s3.5,1.575,3.5,3.5v70.646C169.375,243.527,167.8,245.103,165.875,245.103"/>
	<path clip-path="url(#SVGID_2_)" fill="#FFFFFF" d="M187.917,237.042L187.917,237.042c-1.925,0-3.5-1.575-3.5-3.5v-52.574
		c0-1.925,1.575-3.5,3.5-3.5c1.925,0,3.5,1.575,3.5,3.5v52.574C191.417,235.467,189.842,237.042,187.917,237.042"/>
	<path clip-path="url(#SVGID_2_)" fill="#FFFFFF" d="M210.333,254.081L210.333,254.081c-1.925,0-3.5-1.575-3.5-3.5v-88.848
		c0-1.925,1.575-3.5,3.5-3.5c1.925,0,3.5,1.575,3.5,3.5v88.848C213.833,252.506,212.258,254.081,210.333,254.081"/>
	<path clip-path="url(#SVGID_2_)" fill="#FFFFFF" d="M232.5,273.547L232.5,273.547c-1.925,0-3.5-1.575-3.5-3.5V143
		c0-1.925,1.575-3.5,3.5-3.5s3.5,1.575,3.5,3.5v127.047C236,271.972,234.425,273.547,232.5,273.547"/>
	<path clip-path="url(#SVGID_2_)" fill="#FFFFFF" d="M254.167,254.081L254.167,254.081c-1.925,0-3.5-1.575-3.5-3.5v-88.848
		c0-1.925,1.575-3.5,3.5-3.5c1.925,0,3.5,1.575,3.5,3.5v88.848C257.667,252.506,256.092,254.081,254.167,254.081"/>
	<path clip-path="url(#SVGID_2_)" fill="#FFFFFF" d="M276.833,245.103L276.833,245.103c-1.925,0-3.5-1.575-3.5-3.5v-70.646
		c0-1.925,1.575-3.5,3.5-3.5c1.925,0,3.5,1.575,3.5,3.5v70.646C280.333,243.527,278.758,245.103,276.833,245.103"/>
	<path clip-path="url(#SVGID_2_)" fill="#FFFFFF" d="M298.5,235.018L298.5,235.018c-1.925,0-3.5-1.575-3.5-3.5v-48.526
		c0-1.925,1.575-3.5,3.5-3.5s3.5,1.575,3.5,3.5v48.526C302,233.442,300.425,235.018,298.5,235.018"/>
	<path clip-path="url(#SVGID_2_)" fill="#FFFFFF" d="M321.167,176.005L321.167,176.005c1.925,0,3.5,1.575,3.5,3.5v54.523
		c0,1.925-1.575,3.5-3.5,3.5c-1.925,0-3.5-1.575-3.5-3.5v-54.523C317.667,177.58,319.242,176.005,321.167,176.005"/>
	<path clip-path="url(#SVGID_2_)" fill="#FFFFFF" d="M343.833,178.029L343.833,178.029c1.925,0,3.5,1.575,3.5,3.5v48.526
		c0,1.925-1.575,3.5-3.5,3.5s-3.5-1.575-3.5-3.5v-48.526C340.333,179.604,341.908,178.029,343.833,178.029"/>
	<path clip-path="url(#SVGID_2_)" fill="#FFFFFF" d="M365.5,167.945L365.5,167.945c1.925,0,3.5,1.575,3.5,3.5v70.645
		c0,1.925-1.575,3.5-3.5,3.5s-3.5-1.575-3.5-3.5v-70.645C362,169.52,363.575,167.945,365.5,167.945"/>
	<path clip-path="url(#SVGID_2_)" fill="#FFFFFF" d="M388.167,158.966L388.167,158.966c1.925,0,3.5,1.575,3.5,3.5v88.848
		c0,1.925-1.575,3.5-3.5,3.5c-1.926,0-3.5-1.575-3.5-3.5v-88.848C384.667,160.541,386.241,158.966,388.167,158.966"/>
	<path clip-path="url(#SVGID_2_)" fill="#FFFFFF" d="M409.833,139.5L409.833,139.5c1.925,0,3.5,1.575,3.5,3.5v127.047
		c0,1.925-1.575,3.5-3.5,3.5s-3.5-1.575-3.5-3.5V143C406.333,141.075,407.908,139.5,409.833,139.5"/>
	<path clip-path="url(#SVGID_2_)" fill="#FFFFFF" d="M432,158.966L432,158.966c1.925,0,3.5,1.575,3.5,3.5v88.848
		c0,1.925-1.575,3.5-3.5,3.5s-3.5-1.575-3.5-3.5v-88.848C428.5,160.541,430.075,158.966,432,158.966"/>
	<path clip-path="url(#SVGID_2_)" fill="#FFFFFF" d="M454.417,176.005L454.417,176.005c1.925,0,3.5,1.575,3.5,3.5v52.574
		c0,1.925-1.575,3.5-3.5,3.5c-1.926,0-3.5-1.575-3.5-3.5v-52.574C450.917,177.58,452.491,176.005,454.417,176.005"/>
	<path clip-path="url(#SVGID_2_)" fill="#FFFFFF" d="M476.458,167.945L476.458,167.945c1.925,0,3.5,1.575,3.5,3.5v70.645
		c0,1.925-1.575,3.5-3.5,3.5s-3.5-1.575-3.5-3.5v-70.645C472.958,169.52,474.533,167.945,476.458,167.945"/>
	<path clip-path="url(#SVGID_2_)" fill="#FFFFFF" d="M498.312,157.72L498.312,157.72c1.925,0,3.5,1.575,3.5,3.5v91.34
		c0,1.925-1.575,3.5-3.5,3.5s-3.5-1.575-3.5-3.5v-91.34C494.812,159.295,496.388,157.72,498.312,157.72"/>
	<path clip-path="url(#SVGID_2_)" fill="#FFFFFF" d="M520.167,165.767L520.167,165.767c1.925,0,3.5,1.575,3.5,3.5v72.822
		c0,1.925-1.575,3.5-3.5,3.5c-1.926,0-3.5-1.575-3.5-3.5v-72.822C516.667,167.342,518.241,165.767,520.167,165.767"/>
	<path clip-path="url(#SVGID_2_)" fill="#FFFFFF" d="M541.833,118L541.833,118c1.925,0,3.5,1.575,3.5,3.5v166.039
		c0,1.925-1.575,3.5-3.5,3.5s-3.5-1.575-3.5-3.5V121.5C538.333,119.575,539.908,118,541.833,118"/>
</g>
</svg>
