<?xml version="1.0" encoding="utf-8"?>
<!-- Generator: Adobe Illustrator 20.1.0, SVG Export Plug-In . SVG Version: 6.00 Build 0)  -->
<svg version="1.1" xmlns="http://www.w3.org/2000/svg" xmlns:xlink="http://www.w3.org/1999/xlink" x="0px" y="0px"
	 viewBox="0 0 640 480" style="enable-background:new 0 0 640 480;" xml:space="preserve">
<style type="text/css">
	.st0{fill:#C5C5C5;}
	.st1{font-family:'Raleway-Regular';}
	.st2{font-size:50px;}
</style>
<g id="background">
</g>
<g id="text">
	<text transform="matrix(1 0 0 1 147.5207 331.5)" class="st0 st1 st2">PURE VOLUME</text>
</g>
<g id="lines">
	<path id="line1_-_left" class="st0" d="M100.5,291L100.5,291c-1.9,0-3.5-1.6-3.5-3.5v-166c0-1.9,1.6-3.5,3.5-3.5l0,0
		c1.9,0,3.5,1.6,3.5,3.5v166C104,289.5,102.4,291,100.5,291z"/>
	<path id="line2" class="st0" d="M122.2,247.3L122.2,247.3c-1.9,0-3.5-1.6-3.5-3.5V171c0-1.9,1.6-3.5,3.5-3.5h0
		c1.9,0,3.5,1.6,3.5,3.5v72.8C125.7,245.7,124.1,247.3,122.2,247.3z"/>
	<path id="line3" class="st0" d="M144,255.3L144,255.3c-1.9,0-3.5-1.6-3.5-3.5v-91.3c0-1.9,1.6-3.5,3.5-3.5h0c1.9,0,3.5,1.6,3.5,3.5
		v91.3C147.5,253.8,145.9,255.3,144,255.3z"/>
	<path id="line4" class="st0" d="M165.9,245.1L165.9,245.1c-1.9,0-3.5-1.6-3.5-3.5V171c0-1.9,1.6-3.5,3.5-3.5l0,0
		c1.9,0,3.5,1.6,3.5,3.5v70.6C169.4,243.5,167.8,245.1,165.9,245.1z"/>
	<path id="line5" class="st0" d="M187.9,237L187.9,237c-1.9,0-3.5-1.6-3.5-3.5V181c0-1.9,1.6-3.5,3.5-3.5h0c1.9,0,3.5,1.6,3.5,3.5
		v52.6C191.4,235.5,189.8,237,187.9,237z"/>
	<path id="line6" class="st0" d="M210.3,254.1L210.3,254.1c-1.9,0-3.5-1.6-3.5-3.5v-88.8c0-1.9,1.6-3.5,3.5-3.5h0
		c1.9,0,3.5,1.6,3.5,3.5v88.8C213.8,252.5,212.3,254.1,210.3,254.1z"/>
	<path id="line7" class="st0" d="M232.5,273.5L232.5,273.5c-1.9,0-3.5-1.6-3.5-3.5V143c0-1.9,1.6-3.5,3.5-3.5l0,0
		c1.9,0,3.5,1.6,3.5,3.5v127C236,272,234.4,273.5,232.5,273.5z"/>
	<path id="line8" class="st0" d="M254.2,254.1L254.2,254.1c-1.9,0-3.5-1.6-3.5-3.5v-88.8c0-1.9,1.6-3.5,3.5-3.5h0
		c1.9,0,3.5,1.6,3.5,3.5v88.8C257.7,252.5,256.1,254.1,254.2,254.1z"/>
	<path id="line9" class="st0" d="M276.8,245.1L276.8,245.1c-1.9,0-3.5-1.6-3.5-3.5V171c0-1.9,1.6-3.5,3.5-3.5h0
		c1.9,0,3.5,1.6,3.5,3.5v70.6C280.3,243.5,278.8,245.1,276.8,245.1z"/>
	<path id="line10" class="st0" d="M298.5,235L298.5,235c-1.9,0-3.5-1.6-3.5-3.5V183c0-1.9,1.6-3.5,3.5-3.5l0,0
		c1.9,0,3.5,1.6,3.5,3.5v48.5C302,233.4,300.4,235,298.5,235z"/>
	<path id="line11_-_middle" class="st0" d="M321.2,176L321.2,176c1.9,0,3.5,1.6,3.5,3.5V234c0,1.9-1.6,3.5-3.5,3.5l0,0
		c-1.9,0-3.5-1.6-3.5-3.5v-54.5C317.7,177.6,319.2,176,321.2,176z"/>
	<path id="line12" class="st0" d="M343.8,178L343.8,178c1.9,0,3.5,1.6,3.5,3.5v48.5c0,1.9-1.6,3.5-3.5,3.5l0,0
		c-1.9,0-3.5-1.6-3.5-3.5v-48.5C340.3,179.6,341.9,178,343.8,178z"/>
	<path id="line13" class="st0" d="M365.5,167.9L365.5,167.9c1.9,0,3.5,1.6,3.5,3.5v70.6c0,1.9-1.6,3.5-3.5,3.5l0,0
		c-1.9,0-3.5-1.6-3.5-3.5v-70.6C362,169.5,363.6,167.9,365.5,167.9z"/>
	<path id="line14" class="st0" d="M388.2,159L388.2,159c1.9,0,3.5,1.6,3.5,3.5v88.8c0,1.9-1.6,3.5-3.5,3.5h0c-1.9,0-3.5-1.6-3.5-3.5
		v-88.8C384.7,160.5,386.2,159,388.2,159z"/>
	<path id="line15" class="st0" d="M409.8,139.5L409.8,139.5c1.9,0,3.5,1.6,3.5,3.5v127c0,1.9-1.6,3.5-3.5,3.5l0,0
		c-1.9,0-3.5-1.6-3.5-3.5V143C406.3,141.1,407.9,139.5,409.8,139.5z"/>
	<path id="line16" class="st0" d="M432,159L432,159c1.9,0,3.5,1.6,3.5,3.5v88.8c0,1.9-1.6,3.5-3.5,3.5l0,0c-1.9,0-3.5-1.6-3.5-3.5
		v-88.8C428.5,160.5,430.1,159,432,159z"/>
	<path id="line17" class="st0" d="M454.4,176L454.4,176c1.9,0,3.5,1.6,3.5,3.5v52.6c0,1.9-1.6,3.5-3.5,3.5l0,0
		c-1.9,0-3.5-1.6-3.5-3.5v-52.6C450.9,177.6,452.5,176,454.4,176z"/>
	<path id="line18" class="st0" d="M476.5,167.9L476.5,167.9c1.9,0,3.5,1.6,3.5,3.5v70.6c0,1.9-1.6,3.5-3.5,3.5l0,0
		c-1.9,0-3.5-1.6-3.5-3.5v-70.6C473,169.5,474.5,167.9,476.5,167.9z"/>
	<path id="line19" class="st0" d="M498.3,157.7L498.3,157.7c1.9,0,3.5,1.6,3.5,3.5v91.3c0,1.9-1.6,3.5-3.5,3.5l0,0
		c-1.9,0-3.5-1.6-3.5-3.5v-91.3C494.8,159.3,496.4,157.7,498.3,157.7z"/>
	<path id="line20" class="st0" d="M520.2,165.8L520.2,165.8c1.9,0,3.5,1.6,3.5,3.5v72.8c0,1.9-1.6,3.5-3.5,3.5l0,0
		c-1.9,0-3.5-1.6-3.5-3.5v-72.8C516.7,167.3,518.2,165.8,520.2,165.8z"/>
	<path id="line21_-_right" class="st0" d="M541.8,118L541.8,118c1.9,0,3.5,1.6,3.5,3.5v166c0,1.9-1.6,3.5-3.5,3.5l0,0
		c-1.9,0-3.5-1.6-3.5-3.5v-166C538.3,119.6,539.9,118,541.8,118z"/>
</g>
</svg>
