<?xml version="1.0" encoding="utf-8"?>
<!-- Generator: Adobe Illustrator 20.1.0, SVG Export Plug-In . SVG Version: 6.00 Build 0)  -->
<svg version="1.1" xmlns="http://www.w3.org/2000/svg" xmlns:xlink="http://www.w3.org/1999/xlink" x="0px" y="0px"
	 viewBox="0 0 465 226" style="enable-background:new 0 0 465 226;" xml:space="preserve">
<style type="text/css">
	.st0{fill:#3C1143;}
	.st1{font-family:'Raleway-Regular';}
	.st2{font-size:50px;}
</style>
<g id="background">
</g>
<g id="text">
	<text transform="matrix(1 0 0 1 58.5207 219.5)" class="st0 st1 st2">PURE VOLUME</text>
</g>
<g id="lines">
	<path id="line1_-_left" class="st0" d="M11.5,179L11.5,179c-1.9,0-3.5-1.6-3.5-3.5V9.5C8,7.6,9.6,6,11.5,6h0C13.4,6,15,7.6,15,9.5
		v166C15,177.5,13.4,179,11.5,179z"/>
	<path id="line2" class="st0" d="M33.2,135.3L33.2,135.3c-1.9,0-3.5-1.6-3.5-3.5V59c0-1.9,1.6-3.5,3.5-3.5h0c1.9,0,3.5,1.6,3.5,3.5
		v72.8C36.7,133.7,35.1,135.3,33.2,135.3z"/>
	<path id="line3" class="st0" d="M55,143.3L55,143.3c-1.9,0-3.5-1.6-3.5-3.5V48.5c0-1.9,1.6-3.5,3.5-3.5h0c1.9,0,3.5,1.6,3.5,3.5
		v91.3C58.5,141.8,56.9,143.3,55,143.3z"/>
	<path id="line4" class="st0" d="M76.9,133.1L76.9,133.1c-1.9,0-3.5-1.6-3.5-3.5V59c0-1.9,1.6-3.5,3.5-3.5l0,0
		c1.9,0,3.5,1.6,3.5,3.5v70.6C80.4,131.5,78.8,133.1,76.9,133.1z"/>
	<path id="line5" class="st0" d="M98.9,125L98.9,125c-1.9,0-3.5-1.6-3.5-3.5V69c0-1.9,1.6-3.5,3.5-3.5h0c1.9,0,3.5,1.6,3.5,3.5v52.6
		C102.4,123.5,100.8,125,98.9,125z"/>
	<path id="line6" class="st0" d="M121.3,142.1L121.3,142.1c-1.9,0-3.5-1.6-3.5-3.5V49.7c0-1.9,1.6-3.5,3.5-3.5h0
		c1.9,0,3.5,1.6,3.5,3.5v88.8C124.8,140.5,123.3,142.1,121.3,142.1z"/>
	<path id="line7" class="st0" d="M143.5,161.5L143.5,161.5c-1.9,0-3.5-1.6-3.5-3.5V31c0-1.9,1.6-3.5,3.5-3.5l0,0
		c1.9,0,3.5,1.6,3.5,3.5v127C147,160,145.4,161.5,143.5,161.5z"/>
	<path id="line8" class="st0" d="M165.2,142.1L165.2,142.1c-1.9,0-3.5-1.6-3.5-3.5V49.7c0-1.9,1.6-3.5,3.5-3.5h0
		c1.9,0,3.5,1.6,3.5,3.5v88.8C168.7,140.5,167.1,142.1,165.2,142.1z"/>
	<path id="line9" class="st0" d="M187.8,133.1L187.8,133.1c-1.9,0-3.5-1.6-3.5-3.5V59c0-1.9,1.6-3.5,3.5-3.5l0,0
		c1.9,0,3.5,1.6,3.5,3.5v70.6C191.3,131.5,189.8,133.1,187.8,133.1z"/>
	<path id="line10" class="st0" d="M209.5,123L209.5,123c-1.9,0-3.5-1.6-3.5-3.5V71c0-1.9,1.6-3.5,3.5-3.5l0,0c1.9,0,3.5,1.6,3.5,3.5
		v48.5C213,121.4,211.4,123,209.5,123z"/>
	<path id="line11_-_middle" class="st0" d="M232.2,64L232.2,64c1.9,0,3.5,1.6,3.5,3.5V122c0,1.9-1.6,3.5-3.5,3.5h0
		c-1.9,0-3.5-1.6-3.5-3.5V67.5C228.7,65.6,230.2,64,232.2,64z"/>
	<path id="line12" class="st0" d="M254.8,66L254.8,66c1.9,0,3.5,1.6,3.5,3.5v48.5c0,1.9-1.6,3.5-3.5,3.5h0c-1.9,0-3.5-1.6-3.5-3.5
		V69.5C251.3,67.6,252.9,66,254.8,66z"/>
	<path id="line13" class="st0" d="M276.5,55.9L276.5,55.9c1.9,0,3.5,1.6,3.5,3.5v70.6c0,1.9-1.6,3.5-3.5,3.5l0,0
		c-1.9,0-3.5-1.6-3.5-3.5V59.4C273,57.5,274.6,55.9,276.5,55.9z"/>
	<path id="line14" class="st0" d="M299.2,47L299.2,47c1.9,0,3.5,1.6,3.5,3.5v88.8c0,1.9-1.6,3.5-3.5,3.5h0c-1.9,0-3.5-1.6-3.5-3.5
		V50.5C295.7,48.5,297.2,47,299.2,47z"/>
	<path id="line15" class="st0" d="M320.8,27.5L320.8,27.5c1.9,0,3.5,1.6,3.5,3.5v127c0,1.9-1.6,3.5-3.5,3.5l0,0
		c-1.9,0-3.5-1.6-3.5-3.5V31C317.3,29.1,318.9,27.5,320.8,27.5z"/>
	<path id="line16" class="st0" d="M343,47L343,47c1.9,0,3.5,1.6,3.5,3.5v88.8c0,1.9-1.6,3.5-3.5,3.5l0,0c-1.9,0-3.5-1.6-3.5-3.5
		V50.5C339.5,48.5,341.1,47,343,47z"/>
	<path id="line17" class="st0" d="M365.4,64L365.4,64c1.9,0,3.5,1.6,3.5,3.5v52.6c0,1.9-1.6,3.5-3.5,3.5l0,0c-1.9,0-3.5-1.6-3.5-3.5
		V67.5C361.9,65.6,363.5,64,365.4,64z"/>
	<path id="line18" class="st0" d="M387.5,55.9L387.5,55.9c1.9,0,3.5,1.6,3.5,3.5v70.6c0,1.9-1.6,3.5-3.5,3.5l0,0
		c-1.9,0-3.5-1.6-3.5-3.5V59.4C384,57.5,385.5,55.9,387.5,55.9z"/>
	<path id="line19" class="st0" d="M409.3,45.7L409.3,45.7c1.9,0,3.5,1.6,3.5,3.5v91.3c0,1.9-1.6,3.5-3.5,3.5l0,0
		c-1.9,0-3.5-1.6-3.5-3.5V49.2C405.8,47.3,407.4,45.7,409.3,45.7z"/>
	<path id="line20" class="st0" d="M431.2,53.8L431.2,53.8c1.9,0,3.5,1.6,3.5,3.5v72.8c0,1.9-1.6,3.5-3.5,3.5l0,0
		c-1.9,0-3.5-1.6-3.5-3.5V57.3C427.7,55.3,429.2,53.8,431.2,53.8z"/>
	<path id="line21_-_right" class="st0" d="M452.8,6L452.8,6c1.9,0,3.5,1.6,3.5,3.5v166c0,1.9-1.6,3.5-3.5,3.5l0,0
		c-1.9,0-3.5-1.6-3.5-3.5V9.5C449.3,7.6,450.9,6,452.8,6z"/>
</g>
</svg>
